<svg xmlns="http://www.w3.org/2000/svg" width="41" height="60" viewBox="0 0 41 60" fill="none">
<g filter="url(#filter0_i_46_213)">
<path d="M0.436729 34.3243C0.728107 33.9652 1.12843 33.7636 1.5461 33.7655H9.68403C10.3188 33.7655 10.8335 33.1479 10.8335 32.3862V1.84823C10.8335 0.827457 11.523 0 12.3737 0H28.2128C29.0634 0 29.753 0.827457 29.753 1.84823V32.3862C29.753 33.1479 30.2677 33.7655 30.9025 33.7655H39.0633C39.9139 33.7462 40.6164 34.5579 40.6324 35.5784C40.6405 36.0893 40.4719 36.5815 40.1668 36.9379L21.4082 59.4482C21.1228 59.7961 20.7345 59.9944 20.3277 60C19.9129 60.0018 19.5152 59.8029 19.2242 59.4482L0.465607 36.9379C-0.143768 36.2258 -0.156696 35.0556 0.436729 34.3243Z" fill="#2591F5"/>
</g>
<defs>
<filter id="filter0_i_46_213" x="0" y="0" width="40.6327" height="60" filterUnits="userSpaceOnUse" color-interpolation-filters="sRGB">
<feFlood flood-opacity="0" result="BackgroundImageFix"/>
<feBlend mode="normal" in="SourceGraphic" in2="BackgroundImageFix" result="shape"/>
<feColorMatrix in="SourceAlpha" type="matrix" values="0 0 0 0 0 0 0 0 0 0 0 0 0 0 0 0 0 0 127 0" result="hardAlpha"/>
<feOffset/>
<feGaussianBlur stdDeviation="1"/>
<feComposite in2="hardAlpha" operator="arithmetic" k2="-1" k3="1"/>
<feColorMatrix type="matrix" values="0 0 0 0 0 0 0 0 0 0 0 0 0 0 0 0 0 0 0.25 0"/>
<feBlend mode="normal" in2="shape" result="effect1_innerShadow_46_213"/>
</filter>
</defs>
</svg>