<svg xmlns="http://www.w3.org/2000/svg" width="26" height="26" viewBox="0 0 26 26" fill="none">
<path d="M12.7546 10.9688C12.3605 10.9688 11.9752 11.0879 11.6474 11.3111C11.3197 11.5343 11.0643 11.8515 10.9134 12.2227C10.7626 12.5938 10.7231 13.0023 10.8 13.3963C10.8769 13.7903 11.0667 14.1522 11.3454 14.4363C11.6241 14.7204 11.9793 14.9138 12.3658 14.9922C12.7524 15.0706 13.1531 15.0304 13.5173 14.8766C13.8815 14.7229 14.1927 14.4625 14.4117 14.1285C14.6307 13.7945 14.7476 13.4017 14.7476 13C14.7476 12.4613 14.5376 11.9446 14.1639 11.5637C13.7901 11.1828 13.2832 10.9688 12.7546 10.9688ZM13.1532 13.8125C13.1532 13.9202 13.1112 14.0236 13.0365 14.0998C12.9617 14.1759 12.8604 14.2188 12.7546 14.2188C12.6489 14.2188 12.5476 14.1759 12.4728 14.0998C12.3981 14.0236 12.3561 13.9202 12.3561 13.8125V12.1875C12.3561 12.0798 12.3981 11.9764 12.4728 11.9002C12.5476 11.8241 12.6489 11.7813 12.7546 11.7813C12.8604 11.7813 12.9617 11.8241 13.0365 11.9002C13.1112 11.9764 13.1532 12.0798 13.1532 12.1875V13.8125Z" fill="#2591F5"/>
<path d="M16.5453 10.4735L12.958 8.31224C12.8974 8.27658 12.8287 8.25781 12.7587 8.25781C12.6888 8.25781 12.62 8.27658 12.5594 8.31224L8.97216 10.4735C8.91266 10.5094 8.86337 10.5606 8.82912 10.6218C8.79488 10.6831 8.77687 10.7524 8.77686 10.8229V15.1779C8.77687 15.2484 8.79488 15.3177 8.82912 15.3789C8.86337 15.4402 8.91266 15.4913 8.97216 15.5272L12.5594 17.6885C12.62 17.7241 12.6888 17.7429 12.7587 17.7429C12.8287 17.7429 12.8974 17.7241 12.958 17.6885L16.5453 15.5272C16.6048 15.4913 16.6541 15.4402 16.6883 15.3789C16.7226 15.3177 16.7406 15.2484 16.7406 15.1779V10.8229C16.7406 10.7524 16.7226 10.6831 16.6883 10.6218C16.6541 10.5606 16.6048 10.5094 16.5453 10.4735ZM12.7547 15.8441C12.2029 15.8441 11.6635 15.6773 11.2046 15.3649C10.7458 15.0524 10.3882 14.6082 10.177 14.0886C9.96585 13.569 9.91059 12.9972 10.0182 12.4456C10.1259 11.8939 10.3916 11.3872 10.7818 10.9895C11.172 10.5918 11.6692 10.321 12.2104 10.2113C12.7516 10.1015 13.3126 10.1578 13.8225 10.3731C14.3323 10.5883 14.768 10.9528 15.0746 11.4205C15.3812 11.8881 15.5448 12.4379 15.5448 13.0004C15.5448 13.7546 15.2509 14.4779 14.7276 15.0112C14.2044 15.5445 13.4947 15.8441 12.7547 15.8441Z" fill="#2591F5"/>
<path d="M12.7547 4.875C11.178 4.875 9.63676 5.35152 8.32582 6.24431C7.01488 7.1371 5.99313 8.40605 5.38977 9.8907C4.78641 11.3753 4.62855 13.009 4.93614 14.5851C5.24373 16.1612 6.00296 17.6089 7.11782 18.7452C8.23268 19.8815 9.6531 20.6554 11.1995 20.9689C12.7458 21.2824 14.3487 21.1215 15.8053 20.5065C17.2619 19.8916 18.5069 18.8502 19.3829 17.514C20.2588 16.1779 20.7264 14.607 20.7264 13C20.7264 10.8451 19.8865 8.77849 18.3915 7.25476C16.8965 5.73102 14.8689 4.875 12.7547 4.875ZM17.5377 15.1775C17.5376 15.389 17.4836 15.5969 17.3809 15.7806C17.2781 15.9644 17.1303 16.1178 16.9518 16.2256L13.3645 18.3869C13.1799 18.4984 12.9693 18.5573 12.7547 18.5573C12.5401 18.5573 12.3294 18.4984 12.1448 18.3869L8.55756 16.2256C8.37906 16.1178 8.23118 15.9644 8.12845 15.7806C8.02572 15.5969 7.97168 15.389 7.97164 15.1775V10.8225C7.97168 10.611 8.02572 10.4031 8.12845 10.2194C8.23118 10.0356 8.37906 9.88224 8.55756 9.77437L12.1448 7.61312C12.3294 7.50157 12.5401 7.44271 12.7547 7.44271C12.9693 7.44271 13.1799 7.50157 13.3645 7.61312L16.9518 9.77437C17.1303 9.88224 17.2781 10.0356 17.3809 10.2194C17.4836 10.4031 17.5376 10.611 17.5377 10.8225V15.1775Z" fill="#2591F5"/>
<path d="M23.1179 21.9375C22.7393 21.9385 22.3734 22.0768 22.0856 22.3276C21.7979 22.5784 21.6071 22.9255 21.5475 23.3066H19.4709L18.2552 20.9706C19.5073 20.0719 20.5294 18.8799 21.2356 17.4949C21.9418 16.1099 22.3114 14.5723 22.3134 13.0114C22.3153 11.4505 21.9496 9.91191 21.2468 8.52504C20.5441 7.13818 19.525 5.94354 18.2751 5.04157L19.4709 2.74219H21.5555C21.6262 3.13098 21.8337 3.48014 22.1389 3.72423C22.4441 3.96833 22.8262 4.09061 23.2135 4.06817C23.6009 4.04574 23.9669 3.88012 24.243 3.60235C24.5191 3.32458 24.6864 2.95373 24.7135 2.55926C24.7406 2.1648 24.6256 1.77381 24.3902 1.45954C24.1547 1.14527 23.8149 0.929296 23.4344 0.852078C23.0539 0.774859 22.6588 0.841698 22.3232 1.04007C21.9876 1.23844 21.7345 1.55474 21.6113 1.92969H19.2198C19.1477 1.92989 19.077 1.95002 19.0152 1.98793C18.9534 2.02585 18.9029 2.08013 18.869 2.145L17.5935 4.5825C16.1306 3.70302 14.4639 3.23745 12.7654 3.23388C11.0669 3.23031 9.39832 3.68886 7.93184 4.56219L6.72811 2.24657C6.69422 2.1817 6.6437 2.12741 6.58193 2.0895C6.52016 2.05158 6.44946 2.03145 6.37736 2.03125H3.93004C3.83303 1.6483 3.60232 1.31455 3.28115 1.09257C2.95997 0.870592 2.5704 0.775619 2.18544 0.825456C1.80048 0.875292 1.44657 1.06652 1.19004 1.36328C0.933519 1.66005 0.791992 2.04199 0.791992 2.4375C0.791992 2.83302 0.933519 3.21496 1.19004 3.51172C1.44657 3.80849 1.80048 3.99972 2.18544 4.04955C2.5704 4.09939 2.95997 4.00442 3.28115 3.78244C3.60232 3.56046 3.83303 3.22671 3.93004 2.84375H6.1382L7.27019 5.02125C6.01152 5.92191 4.98446 7.11859 4.27606 8.50985C3.56766 9.90112 3.19881 11.446 3.20076 13.0134C3.20272 14.5809 3.57543 16.1248 4.28729 17.5142C4.99916 18.9036 6.02921 20.0976 7.29012 20.995L6.1382 23.2091H3.94599C3.864 22.8225 3.64651 22.4797 3.33429 22.2449C3.02206 22.0101 2.63654 21.8994 2.24997 21.9335C1.86339 21.9677 1.50231 22.1443 1.23438 22.4304C0.966459 22.7165 0.81009 23.0923 0.794582 23.4875C0.779073 23.8827 0.90549 24.27 1.15014 24.577C1.39479 24.884 1.74088 25.0895 2.12354 25.155C2.5062 25.2205 2.89917 25.1415 3.2288 24.9329C3.55842 24.7242 3.80208 24.4002 3.9141 24.0216H6.37736C6.44946 24.0214 6.52016 24.0012 6.58193 23.9633C6.6437 23.9254 6.69422 23.8711 6.72811 23.8063L7.9717 21.4338C9.43269 22.3001 11.0936 22.7545 12.7839 22.7502C14.4741 22.7459 16.1328 22.2831 17.5895 21.4094L18.8889 23.9038C18.9228 23.9686 18.9733 24.0229 19.0351 24.0608C19.0969 24.0987 19.1676 24.1189 19.2397 24.1191H21.6312C21.7313 24.3988 21.9048 24.6451 22.1328 24.8311C22.3609 25.0172 22.6347 25.1358 22.9244 25.174C23.2141 25.2122 23.5085 25.1686 23.7755 25.0479C24.0426 24.9272 24.2719 24.734 24.4385 24.4895C24.6052 24.245 24.7027 23.9585 24.7205 23.6613C24.7383 23.3641 24.6756 23.0677 24.5393 22.8044C24.403 22.541 24.1984 22.3209 23.9477 22.168C23.6971 22.0152 23.41 21.9354 23.1179 21.9375ZM23.1179 1.625C23.2756 1.625 23.4297 1.67266 23.5608 1.76193C23.6919 1.85121 23.7941 1.97811 23.8544 2.12657C23.9147 2.27504 23.9305 2.43841 23.8998 2.59601C23.869 2.75362 23.7931 2.8984 23.6816 3.01203C23.5701 3.12566 23.4281 3.20304 23.2734 3.23439C23.1188 3.26574 22.9585 3.24965 22.8129 3.18816C22.6672 3.12666 22.5427 3.02252 22.4551 2.8889C22.3675 2.75529 22.3208 2.5982 22.3208 2.4375C22.3208 2.22202 22.4047 2.01535 22.5542 1.86298C22.7037 1.71061 22.9065 1.625 23.1179 1.625ZM2.39151 3.25C2.23384 3.25 2.07972 3.20235 1.94862 3.11307C1.81753 3.02379 1.71535 2.8969 1.65502 2.74843C1.59468 2.59997 1.5789 2.4366 1.60965 2.27899C1.64041 2.12138 1.71634 1.97661 1.82782 1.86298C1.93931 1.74935 2.08135 1.67197 2.23599 1.64062C2.39062 1.60927 2.55091 1.62536 2.69657 1.68685C2.84223 1.74835 2.96674 1.85249 3.05433 1.9861C3.14192 2.11972 3.18868 2.27681 3.18868 2.4375C3.18868 2.65299 3.10469 2.85965 2.95519 3.01203C2.80569 3.1644 2.60293 3.25 2.39151 3.25ZM2.39151 24.375C2.23384 24.375 2.07972 24.3274 1.94862 24.2381C1.81753 24.1488 1.71535 24.0219 1.65502 23.8734C1.59468 23.725 1.5789 23.5616 1.60965 23.404C1.64041 23.2464 1.71634 23.1016 1.82782 22.988C1.93931 22.8743 2.08135 22.797 2.23599 22.7656C2.39062 22.7343 2.55091 22.7504 2.69657 22.8119C2.84223 22.8733 2.96674 22.9775 3.05433 23.1111C3.14192 23.2447 3.18868 23.4018 3.18868 23.5625C3.18681 23.5814 3.18681 23.6005 3.18868 23.6194C3.18868 23.6194 3.18868 23.6194 3.18868 23.6438C3.16885 23.8449 3.07618 24.0312 2.92878 24.1664C2.78138 24.3017 2.58982 24.376 2.39151 24.375ZM3.98585 13C3.98585 11.2323 4.50013 9.50436 5.46367 8.03459C6.4272 6.56483 7.79671 5.41929 9.39901 4.74283C11.0013 4.06637 12.7644 3.88938 14.4654 4.23424C16.1664 4.57909 17.7289 5.43031 18.9552 6.68024C20.1816 7.93017 21.0167 9.52268 21.3551 11.2564C21.6934 12.9901 21.5198 14.7871 20.8561 16.4202C20.1924 18.0534 19.0685 19.4492 17.6264 20.4313C16.1844 21.4133 14.489 21.9375 12.7547 21.9375C10.4291 21.9375 8.19867 20.9959 6.55419 19.3198C4.90971 17.6437 3.98585 15.3704 3.98585 13ZM23.1179 24.375C22.9331 24.3794 22.7525 24.3182 22.6071 24.2018C22.4617 24.0855 22.3605 23.9212 22.3208 23.7372C22.3208 23.7372 22.3208 23.7372 22.3208 23.7128C22.323 23.6831 22.323 23.6532 22.3208 23.6234C22.3188 23.6032 22.3188 23.5828 22.3208 23.5625C22.3208 23.4018 22.3675 23.2447 22.4551 23.1111C22.5427 22.9775 22.6672 22.8733 22.8129 22.8119C22.9585 22.7504 23.1188 22.7343 23.2734 22.7656C23.4281 22.797 23.5701 22.8743 23.6816 22.988C23.7931 23.1016 23.869 23.2464 23.8998 23.404C23.9305 23.5616 23.9147 23.725 23.8544 23.8734C23.7941 24.0219 23.6919 24.1488 23.5608 24.2381C23.4297 24.3274 23.2756 24.375 23.1179 24.375Z" fill="#2591F5"/>
<path d="M1.59424 5.6875H3.18858V7.3125H1.59424V5.6875Z" fill="#2591F5"/>
<path d="M22.3208 18.6875H23.9151V20.3125H22.3208V18.6875Z" fill="#2591F5"/>
</svg>