<svg width="32" height="32" viewBox="0 0 32 32" fill="none" xmlns="http://www.w3.org/2000/svg">
<path fill-rule="evenodd" clip-rule="evenodd" d="M13.5173 2.41999C14.1145 2.24084 14.7453 2.20377 15.3594 2.31177C15.9735 2.41976 16.5538 2.66981 17.0541 3.04196C17.5544 3.41412 17.9607 3.89807 18.2407 4.45518C18.5207 5.0123 18.6665 5.62715 18.6666 6.25066V25.7493C18.6665 26.3728 18.5207 26.9877 18.2407 27.5448C17.9607 28.1019 17.5544 28.5859 17.0541 28.958C16.5538 29.3302 15.9735 29.5802 15.3594 29.6882C14.7453 29.7962 14.1145 29.7591 13.5173 29.58L5.51729 27.18C4.69343 26.9328 3.97117 26.4267 3.45767 25.7367C2.94416 25.0466 2.66677 24.2095 2.66663 23.3493V8.65066C2.66677 7.79052 2.94416 6.95334 3.45767 6.2633C3.97117 5.57327 4.69343 5.06714 5.51729 4.81999L13.5173 2.41999ZM20 5.33332C20 4.9797 20.1404 4.64056 20.3905 4.39051C20.6405 4.14047 20.9797 3.99999 21.3333 3.99999H25.3333C26.3942 3.99999 27.4116 4.42142 28.1617 5.17156C28.9119 5.92171 29.3333 6.93912 29.3333 7.99999V9.33332C29.3333 9.68694 29.1928 10.0261 28.9428 10.2761C28.6927 10.5262 28.3536 10.6667 28 10.6667C27.6463 10.6667 27.3072 10.5262 27.0571 10.2761C26.8071 10.0261 26.6666 9.68694 26.6666 9.33332V7.99999C26.6666 7.64637 26.5261 7.30723 26.2761 7.05718C26.0261 6.80713 25.6869 6.66666 25.3333 6.66666H21.3333C20.9797 6.66666 20.6405 6.52618 20.3905 6.27613C20.1404 6.02608 20 5.68694 20 5.33332ZM28 21.3333C28.3536 21.3333 28.6927 21.4738 28.9428 21.7238C29.1928 21.9739 29.3333 22.313 29.3333 22.6667V24C29.3333 25.0609 28.9119 26.0783 28.1617 26.8284C27.4116 27.5786 26.3942 28 25.3333 28H21.3333C20.9797 28 20.6405 27.8595 20.3905 27.6095C20.1404 27.3594 20 27.0203 20 26.6667C20 26.313 20.1404 25.9739 20.3905 25.7238C20.6405 25.4738 20.9797 25.3333 21.3333 25.3333H25.3333C25.6869 25.3333 26.0261 25.1928 26.2761 24.9428C26.5261 24.6928 26.6666 24.3536 26.6666 24V22.6667C26.6666 22.313 26.8071 21.9739 27.0571 21.7238C27.3072 21.4738 27.6463 21.3333 28 21.3333ZM12 14.6667C11.6463 14.6667 11.3072 14.8071 11.0571 15.0572C10.8071 15.3072 10.6666 15.6464 10.6666 16C10.6666 16.3536 10.8071 16.6927 11.0571 16.9428C11.3072 17.1928 11.6463 17.3333 12 17.3333H12.0013C12.3549 17.3333 12.6941 17.1928 12.9441 16.9428C13.1941 16.6927 13.3346 16.3536 13.3346 16C13.3346 15.6464 13.1941 15.3072 12.9441 15.0572C12.6941 14.8071 12.3549 14.6667 12.0013 14.6667H12Z" fill="#1F2734"/>
<path d="M21.3333 16H27.9999M27.9999 16L25.3333 13.3333M27.9999 16L25.3333 18.6666" stroke="#1F2734" stroke-width="2" stroke-linecap="round" stroke-linejoin="round"/>
</svg>
