<svg xmlns="http://www.w3.org/2000/svg" width="40" height="40" viewBox="0 0 40 40" fill="none">
<path d="M20 40C31.0457 40 40 31.0457 40 20C40 8.9543 31.0457 0 20 0C8.9543 0 0 8.9543 0 20C0 31.0457 8.9543 40 20 40Z" fill="#2591F5"/>
<path d="M29.7482 11.8815C29.6593 11.6444 29.5705 11.5852 29.4519 11.5556C29.126 11.437 28.6223 11.6148 28.6223 11.6148C28.6223 11.6148 9.89639 18.3111 8.82972 19.0518C8.59268 19.2 8.53342 19.3185 8.47416 19.4074C8.29639 19.9407 8.85935 20.1778 8.85935 20.1778L13.689 21.7481C13.689 21.7481 13.8668 21.7778 13.926 21.7481C15.0223 21.0667 24.9482 14.7852 25.5112 14.5778C25.6001 14.5481 25.6593 14.5778 25.6593 14.637C25.4223 15.437 16.8001 23.1111 16.8001 23.1111C16.8001 23.1111 16.7705 23.1407 16.7408 23.2L16.2964 27.9704C16.2964 27.9704 16.1186 29.4222 17.5705 27.9704C18.6075 26.9333 19.6149 26.0741 20.089 25.6592C21.7482 26.8148 23.526 28.0593 24.2964 28.7407C24.6816 29.0667 25.0075 29.1259 25.2742 29.1259C26.0149 29.0963 26.2223 28.2963 26.2223 28.2963C26.2223 28.2963 29.6297 14.5778 29.7482 12.7407C29.7482 12.563 29.7779 12.4444 29.7779 12.3259C29.7779 12.1185 29.7779 11.9704 29.7482 11.8815Z" fill="white"/>
</svg>