<svg xmlns="http://www.w3.org/2000/svg" width="40" height="40" viewBox="0 0 40 40" fill="none">
<path d="M20 40C31.0457 40 40 31.0457 40 20C40 8.9543 31.0457 0 20 0C8.9543 0 0 8.9543 0 20C0 31.0457 8.9543 40 20 40Z" fill="#2591F5"/>
<path d="M15.9704 31.5259C25.7482 31.5259 31.0815 23.437 31.0815 16.4148C31.0815 16.1778 31.0815 15.9704 31.0519 15.7333C32.0889 14.9926 32.9778 14.0444 33.6889 12.9778C32.7408 13.3926 31.7037 13.6889 30.6371 13.8074C31.7334 13.1556 32.563 12.1185 32.9778 10.8741C31.9408 11.4963 30.8149 11.9111 29.6 12.1778C28.6223 11.1407 27.2593 10.4889 25.7186 10.4889C22.7852 10.4889 20.4149 12.8593 20.4149 15.7926C20.4149 16.2074 20.4741 16.6222 20.563 17.0074C16.1482 16.8 12.2371 14.6667 9.62967 11.4667C9.18522 12.237 8.91855 13.1556 8.91855 14.1333C8.91855 15.9704 9.8667 17.6 11.2889 18.5481C10.4297 18.5185 9.60004 18.2815 8.88893 17.8963C8.88893 17.9259 8.88893 17.9259 8.88893 17.9556C8.88893 20.5333 10.726 22.6667 13.1556 23.1704C12.7112 23.2889 12.2371 23.3481 11.763 23.3481C11.4074 23.3481 11.0815 23.3185 10.7556 23.2593C11.4371 25.363 13.3926 26.9037 15.7037 26.9333C13.8963 28.3556 11.5852 29.2148 9.09634 29.2148C8.68152 29.2148 8.23708 29.1852 7.82227 29.1556C10.163 30.637 12.9482 31.5259 15.9704 31.5259Z" fill="white"/>
</svg>