<svg xmlns="http://www.w3.org/2000/svg" width="40" height="40" viewBox="0 0 40 40" fill="none">
<g clip-path="url(#clip0_60_566)">
<path d="M20 40C31.0457 40 40 31.0457 40 20C40 8.9543 31.0457 0 20 0C8.9543 0 0 8.9543 0 20C0 31.0457 8.9543 40 20 40Z" fill="#2591F5"/>
<path d="M32.7703 13.5704C32.474 12.4148 31.5555 11.5259 30.3999 11.2C28.3259 10.6667 19.9999 10.6667 19.9999 10.6667C19.9999 10.6667 11.674 10.6667 9.5703 11.2296C8.41474 11.5259 7.52585 12.4444 7.19993 13.6C6.63696 15.6741 6.63696 20.0296 6.63696 20.0296C6.63696 20.0296 6.63696 24.3556 7.19993 26.4593C7.49622 27.6148 8.41474 28.5037 9.5703 28.8296C11.6444 29.3926 19.9999 29.3926 19.9999 29.3926C19.9999 29.3926 28.3259 29.3926 30.4296 28.8296C31.5851 28.5333 32.474 27.6148 32.7999 26.4593C33.3629 24.3852 33.3629 20.0296 33.3629 20.0296C33.3629 20.0296 33.3333 15.6741 32.7703 13.5704ZM17.3333 24V16L24.2666 20L17.3333 24Z" fill="white"/>
</g>
<defs>
<clipPath id="clip0_60_566">
<rect width="40" height="40" fill="white"/>
</clipPath>
</defs>
</svg>