<svg width="30" height="30" viewBox="0 0 30 30" fill="none" xmlns="http://www.w3.org/2000/svg">
<path d="M20.1128 18.1428C20.1255 18.0626 20.1174 17.9805 20.0892 17.9044C20.061 17.8283 20.0136 17.7608 19.9517 17.7083C19.8897 17.6559 19.8153 17.6203 19.7356 17.6049C19.6559 17.5896 19.5736 17.5951 19.4966 17.6209C19.2526 17.6885 18.2 18.1451 18.051 17.9647C17.9572 17.8773 17.9585 17.5614 17.9942 17.3971C18.2289 16.5886 18.5363 15.4492 18.809 14.6642C20.2369 10.843 17.3701 9.5691 14.5866 10.4817C14.1379 10.6176 13.7358 10.8754 13.4249 11.2263C13.114 11.5772 12.9065 12.0075 12.8256 12.4693C12.8127 12.5478 12.8198 12.6283 12.8463 12.7034C12.8729 12.7784 12.9179 12.8455 12.9774 12.8985C13.0368 12.9514 13.1087 12.9885 13.1863 13.0062C13.2638 13.0239 13.3447 13.0217 13.4212 12.9998C14.6626 12.6299 14.886 12.8753 14.8883 12.8771C14.9642 12.9634 14.8709 13.317 14.7734 13.5043C14.2296 14.8893 13.8811 16.3432 13.7379 17.8242C13.5007 21.5047 19.6227 21.4885 20.1128 18.1428ZM15.1927 19.2043C15.0086 19.0425 14.8655 18.8394 14.7751 18.6116C14.6847 18.3838 14.6496 18.1378 14.6727 17.8938C14.8087 16.5084 15.1356 15.1485 15.6441 13.8526C15.732 13.6695 16.0831 12.8474 15.6088 12.2775C15.3145 11.9231 14.8128 11.7963 14.0881 11.8916C14.2845 11.6485 14.5499 11.4707 14.8494 11.3816C15.6395 11.1504 16.7377 10.9632 17.4802 11.3834C18.3449 12.0306 18.4979 12.5491 17.9256 14.3511C17.64 15.1665 17.3322 16.325 17.0874 17.1609C16.859 18.004 17.2776 19.3074 18.7981 18.8523C17.9924 19.8797 15.928 19.9061 15.1927 19.2043Z" fill="#7B7B7B"/>
<path d="M16.7258 9.4029C17.2055 9.39854 17.6641 9.2049 18.0018 8.86413C18.3395 8.52336 18.5289 8.06302 18.5289 7.58327C18.5289 7.10352 18.3395 6.64318 18.0018 6.30241C17.6641 5.96165 17.2055 5.76802 16.7258 5.76367C16.246 5.76803 15.7874 5.96166 15.4497 6.30244C15.1121 6.64321 14.9226 7.10355 14.9226 7.5833C14.9226 8.06305 15.1121 8.52339 15.4498 8.86416C15.7875 9.20492 16.2461 9.39855 16.7258 9.4029ZM16.7258 6.70118C16.9577 6.70425 17.1791 6.79854 17.342 6.96364C17.5049 7.12874 17.5963 7.35135 17.5963 7.5833C17.5963 7.81525 17.5049 8.03786 17.342 8.20295C17.1791 8.36804 16.9577 8.46233 16.7258 8.4654C16.4938 8.46232 16.2725 8.36803 16.1095 8.20293C15.9466 8.03784 15.8553 7.81522 15.8553 7.58327C15.8553 7.35133 15.9466 7.12871 16.1096 6.96362C16.2725 6.79853 16.4939 6.70424 16.7258 6.70118Z" fill="#7B7B7B"/>
<path d="M24.8483 2.34375C24.8483 2.28218 24.8362 2.22121 24.8126 2.16433C24.7891 2.10744 24.7546 2.05575 24.711 2.01222C24.6675 1.96868 24.6158 1.93416 24.5589 1.91061C24.502 1.88707 24.4411 1.87497 24.3795 1.875H8.30148C7.46639 1.87598 6.66577 2.20815 6.07526 2.79865C5.48476 3.38916 5.15259 4.18977 5.15161 5.02487V25.8467C5.15411 26.4501 5.39488 27.0281 5.82151 27.4548C6.24813 27.8815 6.82605 28.1224 7.42945 28.125H24.3795C24.4652 28.125 24.5493 28.1015 24.6226 28.0571C24.6958 28.0127 24.7556 27.9491 24.7952 27.8731C24.8348 27.7971 24.8529 27.7117 24.8474 27.6262C24.8419 27.5407 24.8131 27.4583 24.764 27.388C24.451 26.9359 24.2834 26.3991 24.2834 25.8492C24.2834 25.2994 24.451 24.7626 24.764 24.3105C24.8147 24.2298 24.8437 24.1374 24.8482 24.0422L24.8483 2.34375ZM7.42943 27.1875C7.07643 27.1845 6.7389 27.0422 6.49034 26.7916C6.24178 26.5409 6.10232 26.2022 6.10232 25.8492C6.10233 25.4962 6.2418 25.1575 6.49037 24.9068C6.73894 24.6562 7.07648 24.5139 7.42947 24.5109C7.66818 24.5085 16.5469 24.5127 17.1372 24.5109C17.2604 24.5093 17.3781 24.4592 17.4646 24.3714C17.5512 24.2837 17.5997 24.1654 17.5997 24.0422C17.5997 23.9189 17.5512 23.8007 17.4646 23.7129C17.3781 23.6252 17.2604 23.5751 17.1372 23.5734H9.02794V7.93579C9.02595 7.81278 8.97569 7.69548 8.888 7.60919C8.8003 7.52291 8.6822 7.47455 8.55918 7.47455C8.43615 7.47456 8.31805 7.52292 8.23036 7.60921C8.14267 7.69551 8.09242 7.81281 8.09044 7.93582V23.5734C7.39163 23.4774 6.68154 23.6351 6.08912 24.018V5.02485C6.08988 4.47485 6.29517 3.94478 6.66507 3.53774C7.03497 3.1307 7.54304 2.87578 8.09046 2.82255V6.06077C8.09202 6.18407 8.14209 6.30178 8.22983 6.38842C8.31757 6.47505 8.43591 6.52363 8.55921 6.52363C8.68252 6.52363 8.80085 6.47505 8.88859 6.38842C8.97633 6.30178 9.0264 6.18407 9.02796 6.06077V2.8125H23.9108V23.5734H19.0122C18.8879 23.5734 18.7687 23.6228 18.6808 23.7107C18.5929 23.7986 18.5435 23.9179 18.5435 24.0422C18.5435 24.1665 18.5929 24.2857 18.6808 24.3736C18.7687 24.4616 18.8879 24.5109 19.0122 24.5109H23.5981C23.4884 24.79 23.4142 25.0818 23.3772 25.3793H8.71712C8.59405 25.3812 8.47668 25.4315 8.39033 25.5192C8.30398 25.6069 8.25558 25.725 8.25558 25.8481C8.25559 25.9712 8.30399 26.0893 8.39034 26.177C8.4767 26.2647 8.59408 26.3149 8.71714 26.3168H23.3774C23.4145 26.6151 23.4886 26.9076 23.5981 27.1875H7.42943Z" fill="#7B7B7B"/>
</svg>
