<svg xmlns="http://www.w3.org/2000/svg" width="40" height="40" viewBox="0 0 40 40" fill="none">
<g clip-path="url(#clip0_60_615)">
<path d="M20 40C31.0457 40 40 31.0457 40 20C40 8.9543 31.0457 0 20 0C8.9543 0 0 8.9543 0 20C0 31.0457 8.9543 40 20 40Z" fill="#2591F5"/>
<mask id="mask0_60_615" style="mask-type:luminance" maskUnits="userSpaceOnUse" x="0" y="0" width="40" height="40">
<path d="M40 0H0V40H40V0Z" fill="white"/>
<path d="M21.9531 20C21.9531 21.0787 21.0787 21.9531 20 21.9531C18.9213 21.9531 18.0469 21.0787 18.0469 20C18.0469 18.9213 18.9213 18.0469 20 18.0469C21.0787 18.0469 21.9531 18.9213 21.9531 20Z" fill="white"/>
<path d="M29.7656 20C29.7656 21.0787 28.8912 21.9531 27.8125 21.9531C26.7338 21.9531 25.8594 21.0787 25.8594 20C25.8594 18.9213 26.7338 18.0469 27.8125 18.0469C28.8912 18.0469 29.7656 18.9213 29.7656 20Z" fill="white"/>
<path d="M14.1406 20C14.1406 21.0787 13.2662 21.9531 12.1875 21.9531C11.1088 21.9531 10.2344 21.0787 10.2344 20C10.2344 18.9213 11.1088 18.0469 12.1875 18.0469C13.2662 18.0469 14.1406 18.9213 14.1406 20Z" fill="white"/>
</mask>
<g mask="url(#mask0_60_615)">
<mask id="mask1_60_615" style="mask-type:luminance" maskUnits="userSpaceOnUse" x="8" y="7" width="25" height="25">
<path d="M8 7H33V32H8V7Z" fill="white"/>
</mask>
<g mask="url(#mask1_60_615)">
<path fill-rule="evenodd" clip-rule="evenodd" d="M8.28605 31.714C8.54507 31.973 8.92726 32.0653 9.27593 31.953L14.2774 30.3424C16.1103 31.3965 18.2357 32 20.5 32C27.4036 32 33 26.4036 33 19.5C33 12.5965 27.4036 7.00001 20.5 7.00001C13.5965 7.00001 8.00003 12.5965 8.00003 19.5C8.00003 21.7643 8.60351 23.8897 9.65767 25.7227L8.04704 30.7241C7.93475 31.0728 8.02704 31.455 8.28605 31.714ZM20.5 30.0469C18.4482 30.0469 16.5361 29.4612 14.9173 28.449C14.6732 28.2964 14.3743 28.2593 14.1002 28.3475L10.4899 29.5102L11.6525 25.8998C11.7408 25.6258 11.7036 25.3268 11.551 25.0827C10.5388 23.4639 9.95315 21.5519 9.95315 19.5C9.95315 13.6751 14.6752 8.95314 20.5 8.95314C26.3249 8.95314 31.0469 13.6751 31.0469 19.5C31.0469 25.3249 26.3249 30.0469 20.5 30.0469Z" fill="white"/>
<path fill-rule="evenodd" clip-rule="evenodd" d="M14 17C14 16.4477 14.4477 16 15 16H26C26.5523 16 27 16.4477 27 17C27 17.5523 26.5523 18 26 18H15C14.4477 18 14 17.5523 14 17Z" fill="white"/>
<path fill-rule="evenodd" clip-rule="evenodd" d="M14 21C14 20.4477 14.4477 20 15 20H24C24.5523 20 25 20.4477 25 21C25 21.5523 24.5523 22 24 22H15C14.4477 22 14 21.5523 14 21Z" fill="white"/>
</g>
</g>
</g>
<defs>
<clipPath id="clip0_60_615">
<rect width="40" height="40" fill="white"/>
</clipPath>
</defs>
</svg>