<svg xmlns="http://www.w3.org/2000/svg" width="26" height="25" viewBox="0 0 26 25" fill="none">
<path d="M11.7858 6.67062C11.8548 6.72911 11.9421 6.76092 12.032 6.76092C12.0427 6.76092 12.0536 6.76046 12.0644 6.75955C12.1654 6.75091 12.2588 6.70238 12.3239 6.62464L14.7538 3.7235C14.8889 3.56217 14.8677 3.32182 14.7065 3.18666C14.5454 3.05139 14.3051 3.07258 14.17 3.23396L11.9859 5.84145L10.9868 4.9948C10.8264 4.85872 10.586 4.87869 10.4501 5.03931C10.3141 5.19993 10.3341 5.44043 10.4946 5.57641L11.7858 6.67062Z" fill="#2591F5"/>
<path d="M12.7495 10.1512C14.0494 10.1512 15.3493 9.65625 16.3389 8.66641C17.2971 7.70802 17.8249 6.43336 17.8249 5.07731C17.8249 3.7213 17.2972 2.44634 16.3389 1.48709C15.2998 0.447754 13.8642 -0.0901558 12.4008 0.0123855C10.931 0.114978 9.58074 0.846537 8.69633 2.01951C8.56968 2.18755 8.6031 2.42648 8.77098 2.55326C8.93902 2.68009 9.17774 2.6466 9.30444 2.47856C10.0561 1.4817 11.204 0.859952 12.4539 0.772756C13.6972 0.686221 14.9173 1.14283 15.8003 2.02607C16.6147 2.84122 17.0631 3.92486 17.0631 5.07731C17.0631 6.2297 16.6147 7.31294 15.8005 8.12738C14.1181 9.81006 11.3809 9.80996 9.6986 8.12738C8.59589 7.02437 8.17425 5.40526 8.59827 3.90174C8.6554 3.6992 8.53764 3.48863 8.33517 3.43146C8.13306 3.37435 7.92232 3.49219 7.86519 3.69473C7.36631 5.46354 7.8625 7.36858 9.16012 8.66641C10.1497 9.6563 11.4496 10.1512 12.7495 10.1512Z" fill="#2591F5"/>
<path d="M24.4513 18.8993C24.3248 18.8272 24.1943 18.753 24.0603 18.6727L23.0644 18.0751C23.5276 17.5828 23.8744 16.9847 24.011 16.3856C24.0526 16.2047 24.074 16.0269 24.074 15.8576V13.3353C24.074 12.1879 23.2112 11.1523 21.8751 10.6976C20.7072 10.3002 19.5478 10.4846 18.9237 11.1513C18.2839 11.2641 17.3866 11.7717 17.417 13.7377C17.4175 13.755 17.4175 13.7692 17.4175 13.7804V15.8576C17.4175 16.0269 17.4389 16.2047 17.4805 16.3841C17.6166 16.9837 17.9629 17.5828 18.4271 18.0756L17.448 18.6631C17.4409 18.6666 17.4338 18.6712 17.4267 18.6752C17.2946 18.7545 17.1651 18.8282 17.0402 18.8993C16.666 19.1122 16.3014 19.3191 16.02 19.6087L15.3182 19.1874C15.7819 18.6946 16.1287 18.0965 16.2653 17.4979C16.3059 17.3195 16.3267 17.1417 16.3267 16.9694V15.8485C16.3267 15.8482 16.3268 15.848 16.3268 15.8477V14.4469C16.3268 13.3 15.4644 12.265 14.1297 11.8102C12.962 11.4122 11.8021 11.5963 11.178 12.2628C10.5378 12.3753 9.6402 12.8828 9.67128 14.8486C9.67158 14.8663 9.67184 14.8809 9.67184 14.8918V15.3754V16.0637V16.9694C9.67184 17.1336 9.69215 17.3104 9.73328 17.4979C9.86988 18.0965 10.2167 18.6946 10.6809 19.1874L9.98008 19.6087C9.69824 19.3191 9.33363 19.1117 8.95886 18.8988C8.83242 18.8267 8.70191 18.753 8.56835 18.6727L8.5582 18.6666C8.55718 18.666 8.55622 18.6654 8.5552 18.6648L7.57233 18.0756C8.03601 17.583 8.38275 16.9849 8.51935 16.3856C8.56023 16.2086 8.58095 16.031 8.58095 15.8578V14.7348V14.3072V13.3354C8.58095 12.1883 7.71848 11.1531 6.38363 10.6982C5.21561 10.3 4.05531 10.4843 3.43074 11.1513C2.79095 11.2638 1.8943 11.7714 1.92543 13.737C1.92573 13.7548 1.92599 13.7693 1.92599 13.7802V14.2626V14.9508V15.8578C1.92599 16.031 1.94671 16.2086 1.98733 16.3846C2.12409 16.9844 2.47087 17.5827 2.93446 18.0753L1.93818 18.6727C1.80482 18.7527 1.67447 18.8268 1.54833 18.8985C0.752124 19.3513 0 19.7789 0 21.0253V23.2641C0 23.34 0 23.5711 0.166716 23.7349C0.306212 23.872 0.476635 23.887 0.606026 23.887C0.625221 23.887 0.643503 23.8867 0.660616 23.8864C0.678745 23.8861 0.697737 23.8856 0.717643 23.8856H4.47425C4.47451 23.8856 4.47476 23.8857 4.47501 23.8857C4.47527 23.8857 4.47552 23.8856 4.47578 23.8856H5.25309H5.25329H6.02832C6.02852 23.8856 6.02872 23.8857 6.02893 23.8857C6.02913 23.8857 6.02933 23.8856 6.02954 23.8856H7.74559V24.3755C7.74559 24.4517 7.74559 24.6834 7.91317 24.8475C8.05282 24.9847 8.22294 25 8.35243 25C8.37173 25 8.39001 24.9995 8.40728 24.9995C8.42505 24.999 8.44384 24.9985 8.46364 24.9985H8.90239C9.11263 24.9985 9.28326 24.8277 9.28326 24.6174C9.28326 24.407 9.11263 24.2363 8.90239 24.2363H8.50731V23.8856V23.1234V22.1367C8.50731 21.3658 8.84349 21.1443 9.67173 20.6742C9.68443 20.6671 9.69712 20.6595 9.71033 20.6524C9.76314 20.6224 9.81646 20.5914 9.8713 20.5599L10.5066 20.9715L11.1612 21.3958C11.1667 21.3988 11.1723 21.4024 11.1779 21.4054C11.2236 21.4319 11.2637 21.4598 11.3028 21.4862C11.3826 21.5406 11.5349 21.6448 11.7192 21.6448C11.7954 21.6448 11.8772 21.627 11.9615 21.5808L12.0138 21.786L11.2713 23.3953C11.2708 23.3963 11.2703 23.3978 11.2698 23.3989C11.2063 23.53 11.2165 23.6748 11.2952 23.7942L11.5547 24.2363H10.6615C10.4512 24.2363 10.2806 24.407 10.2806 24.6174C10.2806 24.8277 10.4512 24.9985 10.6615 24.9985H12.2199H12.221H17.5352C17.555 24.9985 17.5738 24.999 17.5916 24.9995C17.6089 24.9995 17.6272 25 17.6465 25C17.7765 25 17.9471 24.9847 18.0872 24.8475C18.2543 24.6834 18.2543 24.4517 18.2543 24.3755V23.8856H21.5206H21.5216H25.2825C25.3018 23.8856 25.3211 23.8862 25.3388 23.8862C25.3561 23.8867 25.3744 23.8872 25.3937 23.8872C25.5232 23.8872 25.6933 23.8719 25.8329 23.7347C26 23.5706 26 23.3399 26 23.2642V21.0254C26.0001 19.7794 25.248 19.3516 24.4513 18.8993ZM7.65246 19.0118L6.68421 19.6384C6.64425 19.662 6.6087 19.685 6.57716 19.7061L6.36901 19.4855C6.36551 19.4815 6.3617 19.4777 6.35804 19.4739L6.01105 19.1061C6.04848 19.0935 6.08636 19.0801 6.1249 19.0657C6.41954 18.9559 6.70564 18.7976 6.9725 18.6041L7.65246 19.0118ZM3.65885 11.8893C3.76489 11.88 3.86218 11.8267 3.92713 11.7423C4.31373 11.2404 5.22287 11.1077 6.13811 11.4196C6.91359 11.6839 7.81923 12.3443 7.81923 13.3354V14.3072V14.3538H7.65886C7.28348 14.3538 7.04105 14.1444 6.67659 13.8029C6.26633 13.4184 5.75577 12.9399 4.86913 12.9399H4.18683C3.35828 12.9399 3.2199 13.6136 3.13728 14.0162C3.04222 14.479 2.99717 14.5698 2.69406 14.5698H2.68771V14.2627V13.7803C2.68771 13.7664 2.68746 13.7478 2.68705 13.725C2.66877 12.5653 2.99565 11.9477 3.65885 11.8893ZM2.72981 16.2141C2.70188 16.0932 2.68776 15.9733 2.68776 15.8578V15.3319H2.69411C3.64474 15.3319 3.79998 14.5757 3.88341 14.1695C3.97944 13.702 4.01925 13.702 4.18688 13.702H4.86923C5.45484 13.702 5.77979 14.0065 6.15598 14.3591C6.53451 14.7138 6.96351 15.1159 7.65896 15.1159H7.81933V15.8578C7.81933 15.9733 7.80521 16.0932 7.77703 16.2151C7.57512 17.1008 6.75058 18.0192 5.85861 18.3517C5.62978 18.4373 5.43753 18.4772 5.2536 18.4772C5.06966 18.4772 4.87741 18.4373 4.64808 18.3515C3.75651 18.0192 2.93192 17.1008 2.72981 16.2141ZM5.66157 19.846L5.53787 20.3302H4.96648L4.84359 19.848L5.25349 19.4135L5.66157 19.846ZM3.53444 18.6042C3.80119 18.7977 4.08714 18.9558 4.38158 19.0656C4.42027 19.0801 4.45836 19.0935 4.49594 19.1062L3.92998 19.706C3.89829 19.6849 3.86254 19.6619 3.82237 19.6382L2.85453 19.0119L3.53444 18.6042ZM3.54444 22.6751L3.80836 23.1234H0.761722V21.0253C0.761722 20.2533 1.09744 20.0316 1.92472 19.5612C1.99007 19.524 2.0566 19.4862 2.12444 19.4471L3.41566 20.2827C3.42064 20.2859 3.42562 20.2889 3.43069 20.2919C3.47635 20.3186 3.51656 20.3461 3.55546 20.3728C3.64215 20.4323 3.79261 20.5354 3.97426 20.5354C4.05018 20.5354 4.13158 20.5171 4.21603 20.4703L4.26803 20.6744L3.52591 22.2834C3.46218 22.4106 3.46924 22.5549 3.54444 22.6751ZM5.81168 23.1234H5.2537C5.25365 23.1234 5.2536 23.1234 5.25349 23.1234H4.69241L4.29154 22.4424L4.91422 21.0925H5.58997L6.21265 22.4424L5.81168 23.1234ZM7.74569 22.1367V23.1234H6.69574L6.9597 22.6752C7.03481 22.5552 7.04191 22.411 6.97829 22.2837L6.23611 20.6747L6.28862 20.4691C6.37394 20.5169 6.4562 20.5356 6.53293 20.5356C6.71529 20.5356 6.86641 20.4317 6.9534 20.3719C6.992 20.3454 7.03186 20.318 7.077 20.2915C7.08183 20.2887 7.08655 20.2858 7.09122 20.2828L8.38249 19.4472C8.45039 19.4863 8.51686 19.5242 8.58201 19.5615C8.88112 19.7318 9.11573 19.869 9.29397 20.0122C8.49777 20.4644 7.74569 20.8922 7.74569 22.1367ZM23.1442 19.0121L22.1778 19.6382C22.1372 19.662 22.1011 19.6854 22.0691 19.7068L21.8609 19.4857C21.8568 19.4811 21.8518 19.4761 21.8472 19.4715L21.5029 19.1061C21.5405 19.0939 21.5781 19.0802 21.6166 19.066C21.9112 18.9557 22.1971 18.7977 22.4642 18.6041L23.1442 19.0121ZM19.1517 11.8891C19.2579 11.88 19.3554 11.8266 19.4203 11.7423C19.8063 11.2407 20.7148 11.1076 21.6299 11.4191C22.4058 11.6838 23.3122 12.3439 23.3122 13.3353V14.3536H23.1508C22.7755 14.3536 22.5333 14.1447 22.1691 13.8033C21.7588 13.4186 21.2485 12.9399 20.3608 12.9399H19.6783C18.8496 12.9399 18.7114 13.6137 18.6292 14.0167C18.5342 14.4791 18.4895 14.5695 18.1874 14.5695H18.1793V13.7804C18.1793 13.7667 18.1793 13.7479 18.1787 13.7255C18.161 12.5654 18.488 11.9476 19.1517 11.8891ZM18.2229 16.2144C18.194 16.0894 18.1793 15.9694 18.1793 15.8576V15.3317H18.1874C19.137 15.3317 19.2919 14.5756 19.3752 14.1696C19.4711 13.7021 19.5107 13.7021 19.6783 13.7021H20.3608C20.9473 13.7021 21.2723 14.0065 21.6481 14.3592C22.0265 14.7138 22.4551 15.1158 23.1508 15.1158H23.3122V15.8576C23.3122 15.9694 23.2975 16.0894 23.2686 16.2154C23.067 17.101 22.2423 18.0192 21.3495 18.3521C21.1225 18.4374 20.9306 18.4771 20.7452 18.4771C20.5609 18.4771 20.3695 18.4374 20.1409 18.3516C19.2482 18.0187 18.4235 17.1005 18.2229 16.2144ZM21.1535 19.8465L21.0306 20.3302H20.4583L20.3354 19.848L20.7452 19.4136L21.1535 19.8465ZM19.0268 18.6046C19.2934 18.7977 19.5793 18.9557 19.8738 19.0655C19.9124 19.0797 19.9505 19.0934 19.9881 19.1061L19.4219 19.7057C19.3899 19.6849 19.3543 19.662 19.3142 19.6382L18.3473 19.0116L19.0268 18.6046ZM15.399 20.1244L14.4326 20.751C14.392 20.7743 14.3559 20.7977 14.3239 20.8186L13.7572 20.219C13.7948 20.2063 13.8324 20.193 13.871 20.1788C14.166 20.0685 14.4519 19.91 14.719 19.7159L15.399 20.1244ZM11.406 13.0009C11.5121 12.9915 11.6095 12.9382 11.6744 12.8538C12.0605 12.3524 12.9691 12.22 13.8842 12.5318C14.6596 12.796 15.5651 13.4561 15.5651 14.4469V15.4179C15.5651 15.4182 15.565 15.4184 15.565 15.4186V15.4667H15.4047C15.0295 15.4667 14.7874 15.2575 14.4234 14.9161C14.0131 14.5315 13.5026 14.0528 12.615 14.0528H11.9327C11.1039 14.0528 10.9657 14.7268 10.8832 15.1295C10.7884 15.592 10.7435 15.6826 10.4414 15.6826H10.4336V15.3754V14.8918C10.4336 14.8778 10.4334 14.8592 10.4329 14.8366C10.4146 13.6768 10.742 13.0593 11.406 13.0009ZM10.4767 17.3312C10.4483 17.2006 10.4336 17.0792 10.4336 16.9694V16.4448H10.4414C11.3912 16.4448 11.5461 15.6888 11.6294 15.2826C11.7252 14.815 11.7651 14.815 11.9327 14.815H12.615C13.2016 14.815 13.5264 15.1195 13.9025 15.4722C14.2808 15.8269 14.7095 16.2288 15.4048 16.2288H15.5651V16.9694C15.5651 17.0847 15.5509 17.2052 15.5229 17.3276C15.3208 18.2123 14.4961 19.131 13.6054 19.4643C13.3739 19.5502 13.1814 19.5903 12.9996 19.5903C12.8188 19.5903 12.6258 19.5502 12.3943 19.4643C11.5025 19.131 10.6778 18.2123 10.4767 17.3312ZM13.4078 20.9583L13.2849 21.442H12.7121L12.5897 20.9598L12.9995 20.5259L13.4078 20.9583ZM11.6752 20.818C11.6437 20.7972 11.6081 20.7743 11.5675 20.751L10.6011 20.1244L11.2801 19.7159C11.5477 19.91 11.8341 20.0685 12.1292 20.1793C12.1672 20.193 12.2048 20.2063 12.2419 20.2184L11.6752 20.818ZM13.5576 24.2363H12.4384L12.0377 23.5538L12.6598 22.2042H13.3372L13.9588 23.5549L13.5576 24.2363ZM17.4927 24.2363H14.4417L14.7058 23.7881C14.7794 23.6692 14.7876 23.5259 14.7256 23.3989C14.7251 23.3978 14.7246 23.3963 14.7241 23.3953L13.9832 21.786L14.0355 21.5818C14.1203 21.629 14.2026 21.6478 14.2787 21.6478C14.46 21.6478 14.6103 21.5452 14.6972 21.4862C14.7363 21.4593 14.7764 21.4319 14.8221 21.4054C14.8277 21.4024 14.8333 21.3988 14.8388 21.3958L16.1287 20.5599C16.1825 20.5914 16.2364 20.6219 16.2887 20.6519C16.3024 20.6595 16.3161 20.6676 16.3298 20.6753C17.157 21.1453 17.4927 21.3668 17.4927 22.1367V24.2363ZM19.041 22.6814L19.301 23.1234H18.2544V22.1367C18.2544 20.8922 17.5023 20.4649 16.7061 20.0121C16.7061 20.0121 16.7056 20.0121 16.7056 20.0116C16.8833 19.8689 17.1179 19.7311 17.4165 19.5619C17.482 19.5243 17.5491 19.4867 17.6171 19.4471L18.9075 20.2825C18.912 20.286 18.9171 20.2891 18.9222 20.2921C18.9679 20.3186 19.008 20.346 19.0471 20.3724C19.1273 20.4273 19.2807 20.5325 19.4666 20.5325C19.5422 20.5325 19.6235 20.5147 19.7073 20.469L19.7596 20.6742L19.0177 22.2835C19.0171 22.284 19.0171 22.284 19.0171 22.2845C18.9521 22.4156 18.9613 22.5609 19.041 22.6814ZM21.3033 23.1234H20.1846L19.7839 22.4415L20.406 21.0924H21.0829L21.705 22.441L21.3033 23.1234ZM25.2384 23.1234H22.1874L22.451 22.6753C22.5221 22.5625 22.5333 22.4298 22.4815 22.3069C22.4784 22.2993 22.4749 22.2911 22.4713 22.2835L21.7289 20.6742L21.7812 20.4695C21.866 20.5167 21.9483 20.5355 22.0249 20.5355C22.2067 20.5355 22.3581 20.4319 22.4449 20.3724C22.4835 20.346 22.5236 20.3186 22.5693 20.2921C22.5744 20.2891 22.5795 20.286 22.5845 20.2825L23.8744 19.4471C23.9424 19.4867 24.0095 19.5243 24.075 19.5619C24.9027 20.032 25.2384 20.2535 25.2384 21.0254V23.1234Z" fill="#2591F5"/>
</svg>